<svg width="227" height="46" viewBox="0 0 227 46" fill="none" xmlns="http://www.w3.org/2000/svg">
<path fill-rule="evenodd" clip-rule="evenodd" d="M5.84102 12.3507C7.66604 9.94063 10.0569 8.01526 12.8032 6.74414C15.5494 5.47301 18.5668 4.89514 21.5895 5.0614C24.6123 5.22766 27.5477 6.13295 30.1373 7.69756C32.7269 9.26217 34.8912 11.4381 36.4397 14.0337L37.7771 13.2923L40.0063 11.9874C38.0065 8.63031 35.1662 5.84972 31.7643 3.91853C28.3623 1.98735 24.5156 0.971924 20.6016 0.971924C16.6877 0.971924 12.841 1.98735 9.43902 3.91853C6.03708 5.84972 3.19681 8.63031 1.19698 11.9874L0.0898438 13.7223L1.85829 14.7677L8.70175 18.8233C7.58239 21.6322 7.50447 24.7476 8.48201 27.6088C9.45954 30.4699 11.4283 32.8891 14.0342 34.4309C16.64 35.9727 19.7117 36.536 22.6967 36.0194C25.6816 35.5027 28.3838 33.9401 30.317 31.6127L35.3028 34.5783C33.4773 36.9905 31.0849 38.9173 28.3366 40.1887C25.5883 41.4601 22.5687 42.037 19.5441 41.8685C16.5195 41.6999 13.583 40.7912 10.9936 39.2224C8.40427 37.6536 6.2417 35.473 4.69673 32.8731L1.16726 34.9564C3.16709 38.3135 6.00735 41.0941 9.40929 43.0253C12.8112 44.9565 16.6579 45.9719 20.5719 45.9719C24.4859 45.9719 28.3326 44.9565 31.7345 43.0253C35.1365 41.0941 37.9767 38.3135 39.9766 34.9564L41.0317 33.1919L39.2632 32.1465L33.6458 28.8175L28.8011 26.0298C28.2114 27.9031 26.997 29.5186 25.3597 30.6079C23.7224 31.6972 21.7609 32.1947 19.801 32.0177C17.8412 31.8407 16.001 30.9998 14.5864 29.6349C13.1717 28.27 12.2678 26.4631 12.0247 24.5146C11.7816 22.5661 12.2141 20.5933 13.2502 18.924C14.2863 17.2546 15.8637 15.9893 17.7202 15.3383C19.5768 14.6873 21.6007 14.6898 23.4557 15.3453C25.3106 16.0009 26.8849 17.27 27.9169 18.9419L31.4761 16.8956C30.4305 15.1652 28.986 13.7089 27.2627 12.6477C25.5394 11.5866 23.5871 10.9513 21.5682 10.7947C19.5493 10.638 17.5221 10.9646 15.6551 11.7472C13.7881 12.5298 12.1354 13.7458 10.8343 15.2941L5.84102 12.3507Z" fill="#FF7152"/>
<path d="M53.6018 29.3667C51.4173 29.3667 49.7528 28.8081 48.6085 27.6911C48.0209 27.0727 47.5672 26.3401 47.2757 25.539C46.9842 24.738 46.8612 23.8856 46.9144 23.035C46.8621 22.1654 46.9836 21.2942 47.2719 20.4719C47.5602 19.6496 48.0095 18.8928 48.5937 18.2455C49.7083 17.0938 51.3776 16.5155 53.6018 16.5106C54.2871 16.5036 54.9715 16.5632 55.6452 16.6885C56.2355 16.7979 56.8168 16.9515 57.3839 17.1482V19.884C56.2584 19.4179 55.0508 19.181 53.8322 19.1871C53.322 19.1422 52.808 19.2013 52.3213 19.3606C51.8347 19.5199 51.3856 19.7761 51.0012 20.1138C50.3293 20.9326 50.004 21.9806 50.0946 23.035C50.0512 23.54 50.1133 24.0486 50.277 24.5284C50.4407 25.0083 50.7025 25.449 51.0457 25.8227C51.8404 26.4701 52.8537 26.7886 53.8767 26.7124C54.4824 26.714 55.0869 26.6594 55.6824 26.5493C56.2756 26.4388 56.8558 26.2674 57.4137 26.0377V28.7884C56.8476 28.9709 56.2689 29.1121 55.6824 29.211C54.9945 29.3217 54.2985 29.3738 53.6018 29.3667Z" fill="white"/>
<path d="M64.6521 29.3668C62.6162 29.3668 61.0706 28.8502 60.0155 27.8172C58.9604 26.7842 58.4279 25.1778 58.418 22.998C58.418 20.6848 58.953 19.0314 60.0155 18.0231C61.0781 17.0148 62.6162 16.5403 64.6521 16.5403C66.6881 16.5403 68.2262 17.0444 69.2887 18.0231C70.3513 19.0018 70.8788 20.6848 70.8788 22.998C70.8788 25.1778 70.3439 26.7866 69.2887 27.8172C68.2336 28.8478 66.6806 29.3668 64.6521 29.3668ZM64.6521 26.7125C65.0831 26.7552 65.5181 26.6963 65.9221 26.5405C66.3261 26.3846 66.6877 26.1363 66.9779 25.8154C67.5354 24.9861 67.7972 23.9937 67.7209 22.998C67.8166 21.954 67.5546 20.9086 66.9779 20.0324C66.6846 19.726 66.3258 19.4895 65.9283 19.3406C65.5308 19.1917 65.1047 19.1342 64.6818 19.1723C64.2555 19.1329 63.8258 19.1898 63.4244 19.3387C63.0231 19.4875 62.6605 19.7246 62.3635 20.0324C61.7829 20.9069 61.5206 21.9537 61.6205 22.998C61.5442 23.9937 61.806 24.9861 62.3635 25.8154C62.6512 26.1292 63.0069 26.3732 63.4036 26.5287C63.8003 26.6842 64.2273 26.747 64.6521 26.7125Z" fill="white"/>
<path d="M72.4688 29.174V16.7034H78.7178C79.3121 16.6543 79.9101 16.7328 80.4714 16.9336C81.0328 17.1344 81.5446 17.4528 81.9723 17.8674C82.7069 18.7341 83.0817 19.8481 83.02 20.9814C83.0432 21.771 82.8199 22.5482 82.381 23.2056C81.952 23.8395 81.3443 24.3322 80.6348 24.6217C80.8072 24.7535 80.9555 24.9141 81.0732 25.0962C81.2148 25.3319 81.3342 25.5801 81.4299 25.8376L82.916 29.2037H79.6466L78.2496 26.0304C78.1591 25.7952 78.0047 25.5899 77.8038 25.4373C77.5778 25.3087 77.3208 25.2446 77.0608 25.2519H75.5895V29.2037L72.4688 29.174ZM75.5895 22.8201H77.9004C78.4159 22.8526 78.9249 22.6913 79.3271 22.3678C79.5083 22.1877 79.648 21.9704 79.7366 21.731C79.8251 21.4916 79.8603 21.2358 79.8398 20.9814C79.8398 19.7358 79.2379 19.1056 78.0342 19.1056H75.5895V22.8201Z" fill="white"/>
<path d="M84.6094 29.174V16.7034H93.8306V19.1056H87.7376V21.7227H93.1098V24.1768H87.7376V26.7718H93.8306V29.174H84.6094Z" fill="white"/>
<path d="M131.876 16.7314H127.448V28.9534H131.876C135.926 28.9534 138.518 26.3794 138.518 22.8334C138.518 19.2694 136.07 16.7314 131.876 16.7314ZM131.732 27.0994H129.41V18.5674H131.714C134.9 18.5674 136.484 20.1874 136.484 22.8334C136.394 25.7674 134.558 27.0994 131.732 27.0994ZM144.908 29.2234C146.42 29.2234 147.41 28.6294 148.022 27.9994L148.004 28.9534H149.966V19.6474H148.04V20.5474C147.392 19.8994 146.258 19.3774 144.908 19.3774C142.064 19.3774 140.048 21.5914 140.048 24.3094C140.048 27.0274 142.064 29.2234 144.908 29.2234ZM145.052 27.4954C143.306 27.4954 141.992 26.0554 141.992 24.2914C141.992 22.5274 143.306 21.1054 145.052 21.1054C146.78 21.1054 148.148 22.2754 148.148 24.2914C148.148 26.3254 146.78 27.4954 145.052 27.4954ZM154.896 29.2234C157.506 29.2234 158.568 27.8194 158.568 26.3974C158.568 24.9934 157.866 24.3814 156.624 23.6614C155.022 22.7254 154.518 22.5274 154.518 21.9334C154.518 21.4474 154.95 21.1054 155.994 21.1054C156.93 21.1054 157.758 21.5014 158.172 21.8974V19.9894C157.722 19.7194 156.894 19.3774 155.76 19.3774C154.068 19.3774 152.682 20.3854 152.682 21.9694C152.682 23.5174 153.798 24.1114 155.022 24.7954C156.12 25.4074 156.75 25.8214 156.75 26.5054C156.75 27.1174 156.12 27.4954 154.878 27.4954C153.366 27.4954 152.142 26.4334 152.142 26.4334V28.3414C152.142 28.3414 153.312 29.2234 154.896 29.2234ZM165.561 19.3594C163.293 19.3594 162.663 20.7994 162.663 20.7994V16.4074L160.719 16.7314V28.9534H162.663V23.7154C162.663 21.9694 163.923 21.0874 165.273 21.0874C166.551 21.0874 167.361 21.9334 167.361 23.4274V28.9534H169.305V23.2294C169.305 20.6734 167.649 19.3594 165.561 19.3594ZM177.08 29.2234C179.924 29.2234 181.94 27.0274 181.94 24.3094C181.94 21.5914 179.924 19.3774 177.08 19.3774C175.73 19.3774 174.596 19.8994 173.948 20.5474V16.4074L172.022 16.7314V28.9534H173.984L173.966 27.9994C174.578 28.6294 175.568 29.2234 177.08 29.2234ZM176.936 27.4954C175.208 27.4954 173.84 26.3254 173.84 24.2914C173.84 22.2754 175.208 21.1054 176.936 21.1054C178.682 21.1054 180.05 22.5274 180.05 24.2914C180.05 26.0554 178.682 27.4954 176.936 27.4954ZM188.472 29.2234C191.298 29.2234 193.566 27.0274 193.566 24.3094C193.566 21.5914 191.298 19.3774 188.472 19.3774C185.646 19.3774 183.378 21.5914 183.378 24.3094C183.378 27.0274 185.646 29.2234 188.472 29.2234ZM188.472 27.4774C186.636 27.4774 185.25 26.0554 185.25 24.3094C185.25 22.5454 186.636 21.1234 188.472 21.1234C190.308 21.1234 191.694 22.5454 191.694 24.3094C191.694 26.0554 190.308 27.4774 188.472 27.4774ZM199.875 29.2234C201.387 29.2234 202.377 28.6294 202.989 27.9994L202.971 28.9534H204.933V19.6474H203.007V20.5474C202.359 19.8994 201.225 19.3774 199.875 19.3774C197.031 19.3774 195.015 21.5914 195.015 24.3094C195.015 27.0274 197.031 29.2234 199.875 29.2234ZM200.019 27.4954C198.273 27.4954 196.959 26.0554 196.959 24.2914C196.959 22.5274 198.273 21.1054 200.019 21.1054C201.747 21.1054 203.115 22.2754 203.115 24.2914C203.115 26.3254 201.747 27.4954 200.019 27.4954ZM207.829 28.9534H209.773V24.2914C209.809 22.3114 211.231 20.9614 213.589 20.9614V19.3594C211.609 19.3594 210.205 20.2954 209.773 21.4294V19.6294H207.829V28.9534ZM219.351 29.2234C220.863 29.2234 221.853 28.6294 222.465 27.9994L222.447 28.9534H224.427V16.4074L222.483 16.7314V20.5474C221.835 19.8994 220.701 19.3774 219.351 19.3774C216.507 19.3774 214.491 21.5914 214.491 24.3094C214.491 27.0274 216.507 29.2234 219.351 29.2234ZM219.495 27.4954C217.749 27.4954 216.381 26.0554 216.381 24.2914C216.381 22.5274 217.749 21.1054 219.495 21.1054C221.223 21.1054 222.591 22.2754 222.591 24.2914C222.591 26.3254 221.223 27.4954 219.495 27.4954Z" fill="white"/>
<line opacity="0.1" x1="110.828" y1="3.47192" x2="110.828" y2="43.4719" stroke="white" stroke-width="2"/>
</svg>
