<svg width="20" height="21" viewBox="0 0 20 21" fill="none" xmlns="http://www.w3.org/2000/svg">
<path fill-rule="evenodd" clip-rule="evenodd" d="M3.43108 5.52916C4.2422 4.45801 5.30482 3.60229 6.52537 3.03735C7.74593 2.47241 9.08697 2.21558 10.4304 2.28947C11.7739 2.36336 13.0785 2.76571 14.2294 3.46109C15.3803 4.15648 16.3423 5.12355 17.0305 6.27717L17.6249 5.94765L18.6156 5.3677C17.7268 3.87565 16.4645 2.63983 14.9525 1.78153C13.4405 0.923223 11.7309 0.471924 9.99135 0.471924C8.25181 0.471924 6.54216 0.923223 5.03019 1.78153C3.51821 2.63983 2.25588 3.87565 1.36706 5.3677L0.875 6.13877L1.66098 6.60339L4.70251 8.40585C4.20502 9.65428 4.17039 11.0389 4.60485 12.3105C5.03931 13.5822 5.91433 14.6573 7.07248 15.3426C8.23062 16.0278 9.59584 16.2782 10.9225 16.0486C12.2491 15.8189 13.4501 15.1244 14.3093 14.09L16.5252 15.4081C15.7139 16.4802 14.6506 17.3365 13.4291 17.9016C12.2077 18.4667 10.8656 18.7231 9.52133 18.6482C8.17707 18.5733 6.87194 18.1694 5.72112 17.4721C4.5703 16.7749 3.60916 15.8058 2.9225 14.6502L1.35385 15.5762C2.24267 17.0682 3.505 18.304 5.01698 19.1623C6.52895 20.0206 8.2386 20.4719 9.97814 20.4719C11.7177 20.4719 13.4273 20.0206 14.9393 19.1623C16.4513 18.304 17.7136 17.0682 18.6024 15.5762L19.0714 14.7919L18.2854 14.3273L15.7888 12.8477L13.6356 11.6088C13.3735 12.4413 12.8337 13.1593 12.106 13.6435C11.3784 14.1276 10.5066 14.3487 9.63552 14.27C8.76448 14.1914 7.94664 13.8177 7.3179 13.211C6.68917 12.6044 6.28741 11.8013 6.17937 10.9353C6.07134 10.0693 6.26354 9.19253 6.72404 8.45061C7.18454 7.70869 7.8856 7.14633 8.71074 6.85699C9.53587 6.56765 10.4354 6.56875 11.2598 6.86011C12.0842 7.15146 12.7839 7.71553 13.2426 8.45857L14.8245 7.5491C14.3597 6.78004 13.7177 6.13279 12.9518 5.66117C12.1859 5.18956 11.3182 4.9072 10.4209 4.83758C9.52364 4.76797 8.62265 4.91311 7.79289 5.26093C6.96313 5.60875 6.22857 6.1492 5.65031 6.83735L3.43108 5.52916Z" fill="#FF7152"/>
</svg>
